<?xml version="1.0" encoding="utf-8"?>
<!-- Generator: Adobe Illustrator 25.2.1, SVG Export Plug-In . SVG Version: 6.00 Build 0)  -->
<svg version="1.1" id="Layer_1" xmlns="http://www.w3.org/2000/svg" xmlns:xlink="http://www.w3.org/1999/xlink" x="0px" y="0px"
	viewBox="0 0 750 250" style="enable-background:new 0 0 750 250;" xml:space="preserve">
<style type="text/css">
	.st0{fill:#DF3E3B;}
</style>
<g>
	<path class="st0" d="M215.59,72.27c15.95,0.98,28.2,5.04,41.52,13.05c14.14,8.5,16.12,21.62,5.04,33.37
		c-12.33,13.08-25.03,25.85-38.16,38.12c-7.11,6.64-15.68,11.46-24.08,1.41c-7.46-8.93-4.93-17,2.92-24.43
		c5.61-5.31,11.16-10.74,16.2-16.58c2.44-2.83,7.48-5.5,4.77-10.26c-2.29-4.02-7.18-3.37-11.28-3.59
		c-18.35-0.99-35.99,10.55-42.29,27.64c-6.83,18.55-1.83,40.62,11.59,51.15c15.46,12.13,38.27,13.8,53.85,3.8
		c3.03-1.94,5.49-4.81,8.58-6.59c7.98-4.6,16.06-4.93,22.25,2.72c6.15,7.6,2.49,14.28-3.37,20.51
		c-19.41,20.62-56.08,26.95-83.28,14.19c-28.23-13.24-46.69-43.92-43.55-72.39C141.33,98.78,169.95,72.04,215.59,72.27z"/>
	<path class="st0" d="M364.43,72.27c15.95,0.98,28.2,5.04,41.52,13.05c14.14,8.5,16.12,21.62,5.04,33.37
		c-12.33,13.08-25.03,25.85-38.16,38.12c-7.11,6.64-15.68,11.46-24.08,1.41c-7.46-8.93-4.93-17,2.92-24.43
		c5.61-5.31,11.16-10.74,16.2-16.58c2.44-2.83,7.48-5.5,4.77-10.26c-2.29-4.02-7.18-3.37-11.28-3.59
		c-18.35-0.99-35.99,10.55-42.29,27.64c-6.83,18.55-1.83,40.62,11.59,51.15c15.46,12.13,38.27,13.8,53.85,3.8
		c3.03-1.94,5.49-4.81,8.58-6.59c7.98-4.6,16.06-4.93,22.25,2.72c6.15,7.6,2.49,14.28-3.37,20.51
		c-19.41,20.62-56.08,26.95-83.28,14.19c-28.23-13.24-46.69-43.92-43.55-72.39C290.18,98.78,318.8,72.04,364.43,72.27z"/>
	<path class="st0" d="M113.91,200.57c-0.03,10.78-0.06,22.38-14.07,22.77c-15.05,0.42-16.46-12.33-16.66-23.14
		c-0.59-32.52-0.27-110.7-0.28-143.22c0-5.16-0.61-10.44,0.29-15.45c1.62-9.04,7-15.03,16.82-14.86c9.63,0.16,13.79,6.41,13.9,15.22
		C114.17,62,113.96,183.02,113.91,200.57z"/>
	<path class="st0" d="M469.19,200.57c-0.03,10.78-0.06,22.38-14.07,22.77c-15.05,0.42-16.46-12.33-16.66-23.14
		c-0.59-32.52-0.27-110.7-0.28-143.22c0-5.16-0.61-10.44,0.29-15.45c1.62-9.04,7-15.03,16.82-14.86c9.63,0.16,13.79,6.41,13.9,15.22
		C469.45,62,469.24,183.02,469.19,200.57z"/>
	<path class="st0" d="M564.49,70.3c-99.21,0.55-100.97,151.72,0,152.64C665.47,222.01,663.69,70.83,564.49,70.3z M564.49,191.36
		c-52.44,1.26-60.15-80.72-7.32-88.56C619.69,93.5,626.83,190.5,564.49,191.36z"/>
	<path class="st0" d="M667.3,203.18c-0.22,14.57-5.02,20.27-15.1,20.17c-9.25-0.09-14.31-5.33-14.33-14.51
		c-0.02-9.69,4.96-15.9,14.99-15.51C661.51,193.66,667.28,198.32,667.3,203.18z"/>
</g>
</svg>
