<?xml version="1.0" encoding="utf-8"?>
<!-- Generator: Adobe Illustrator 25.2.1, SVG Export Plug-In . SVG Version: 6.00 Build 0)  -->
<svg version="1.1" id="Layer_1" xmlns="http://www.w3.org/2000/svg" xmlns:xlink="http://www.w3.org/1999/xlink" x="0px" y="0px"
	 viewBox="0 0 418.2 394.7" style="enable-background:new 0 0 418.2 394.7;" xml:space="preserve">
<style type="text/css">
	.st0{fill:#FCFBFA;}
	.st1{fill:#DF3E3B;}
	.st2{fill:#312A29;}
</style>
<g>
	<path class="st0" d="M416.9,221.3c-4.9,25.5-21.3,44.3-46.2,52.9c-0.5,0.2-1,0.3-1.5,0.5c-2.9,0.9-3,1.1-3.1,1.9
		c-5.4,27.7-21.2,50.9-48.6,70.9c-5.7,4.2-11.7,8-17.7,11.4c6.9,8.6,15,12.8,25.3,13.3h0.1c2.8,0.2,5,2.5,5,5.3v0.1
		c-0.1,2.6-1.3,6.7-8.1,7.8c-0.3,1.4-1.2,2.7-2.5,3.4c-3.3,1.9-6.6,2.8-9.8,2.8c-2.8,0-5.3-0.7-7.7-1.8c-0.8,0.4-1.7,0.7-2.6,0.7
		c-1,0-2-0.2-3.5-1c-0.4,0.2-0.8,0.3-1.3,0.4l1.5,4.7l-11.8-8c-2.4-1.6-4.5-3.3-6.3-5.2c-0.8,0.3-1.7,0.5-2.6,0.5
		c-4,0-9.1-3.8-13.2-7.7c-17,4.6-35.4,6.9-56.1,6.9h-1.9c-14.1,0-29.2-2.2-43.9-6.2c0,0-0.1,0.1-0.1,0.1c-0.9,0.7-2,1-3.1,1
		c-0.5,0-1-0.1-1.5-0.2c-0.8,0.5-1.7,0.8-2.8,0.8c-0.2,0-0.3,0-0.5,0c-5.6,6.1-12.4,11.5-21.9,14.3l0,0l0,0
		c-0.5,0.1-0.9,0.2-1.4,0.2c-0.7,0-1.4-0.2-2.1-0.4c-1.2,0.7-2.5,1.2-3.9,1.2c-0.7,0-1.5-0.1-2.2-0.4l-1.9-0.7
		c-2.1,0.8-4.4,1.3-6.8,1.3c-3.4,0-6.5-1.1-9-3.3c-1-0.8-1.6-1.9-1.8-3.1c-3.7-1-6-3-7.3-4.8c-1.2-1.6-1.4-3.7-0.5-5.5
		c0.9-1.8,2.7-2.9,4.8-2.9h0.2l0.2,0c0.9,0.1,1.8,0.1,2.7,0.1c9.8,0,17.1-3.7,23-12c-2.5-1.3-4.9-2.7-7.3-4.1
		c-31.8-19-51.5-42.8-60.5-72.9c-1.4-4.7-3.4-6.8-8.1-8.5c-30.6-11.5-47.3-33.6-48.4-63.7c-0.5-13.7,2.3-26,8.3-36.6
		c6.1-10.8,15.5-19.5,27.7-25.9c10.9-5.7,21.9-8.6,32.8-8.6c12.1,0,24,3.6,35.2,10.6c3.6,2.2,6.6,3.3,9.2,3.3c2.8,0,5.5-1.2,8.5-3.8
		c2.1-1.8,2.4-2.5,2.5-2.7c0-0.1-0.1-0.8-1.1-2.3c-4.7-6.7-8.5-13.9-12.3-21.2c-6.2-12.1-3.6-22.8,7.6-30.9c2-1.5,4.4-2.9,7.3-4.3
		c14.9-7.3,23.9-15.8,22.6-35.1c-0.7-11.4,4.9-24,15.5-34.4c10-9.9,22.9-16.6,35.3-18.5c4-0.6,7.9-0.9,11.7-0.9
		c15.4,0,29.3,4.9,40.3,14.2c10.9,9.3,18.7,22.7,22.4,38.9c3.1,13.6-0.1,29-8.8,42.2c-8.8,13.4-21.9,23.2-37,27.6
		c-5.8,1.7-11.6,2.5-17.4,2.5c-12.7,0-25-4.1-36.6-12.3c-1.1-0.8-3.2-1.2-5.6-1.2c-7.1,0-13.7,3.5-14.3,5.8
		c-0.7,2.8,1.2,5.6,4.2,9.8c1.3,1.8,2.7,3.7,3.8,5.7c0.8,1.5,1.6,1.8,2.8,1.8c0.6,0,1.2-0.1,2-0.2c17.6-3.6,33.5-5.4,48.7-5.4
		c23,0,44.3,4.2,63.3,12.6c10.1,4.5,19.2,6.5,28.6,6.5c8.2,0,16.9-1.5,28.1-4.9c5.7-1.7,11.5-2.6,17.4-2.6c18.9,0,37,8.8,49.7,24.2
		C415.5,181,420.8,201.4,416.9,221.3z"/>
	<path class="st0" d="M310.9,309.7c-50.5,50.7-147.4,52.9-200.2,4.6c-35.3-32.3-36.2-78.7-2-112.2c28.3-27.7,63.1-38.8,102.5-39.6
		c36.2,0.6,69.8,10.2,97.4,35.6C343.5,230.2,344.2,276.2,310.9,309.7z"/>
	<path class="st0" d="M211,91.3c-16.5,0-28.9-12.4-28.9-28.7c0-16.6,13.3-30.1,29.4-29.8c15.6,0.2,29,13.5,29.3,29.2
		C241,78.2,227.7,91.3,211,91.3z"/>
	<path class="st0" d="M70.2,174.9c1.9,0.3,5.2,0.5,8.3,1.4c10.2,2.9,10.7,4.7,3.9,13.1c-10.6,13.2-18.5,27.8-22.2,44.2
		c-1.9,8.3-4.9,7-10.1,3.8c-12.6-7.8-18.7-23.5-14.5-37.7C40.1,185,53.8,174.7,70.2,174.9z"/>
	<path class="st0" d="M349.3,174.9c15.4,0.2,28.2,9.6,33,23.5c4.5,13.1,0,28.5-10.7,37.3c-5.1,4.1-8.7,6.3-10.5-3.1
		c-3.2-16.7-11.7-30.9-22.3-44c-2.1-2.6-7-4.8-5.4-8.6c1.6-3.7,6.6-3.7,10.5-4.4C345.9,175.1,348.1,175,349.3,174.9z"/>
	<path class="st1" d="M161.8,276.5c-12.3-0.1-21.9-10-21.5-22.3c0.4-11.5,10.5-21.2,21.9-21c12.2,0.2,21.9,10.4,21.4,22.5
		C183.2,267.7,173.8,276.6,161.8,276.5z"/>
	<path class="st1" d="M259,276.5c-12.1-0.2-21.1-9.4-21-21.6c0.1-12,9.5-21.5,21.3-21.5c12.4,0,22,9.9,21.7,22.3
		C280.6,267.6,271,276.6,259,276.5z"/>
	<g>
		<path class="st2" d="M336.9,148.4c-21.9,6.7-38.8,7.6-60.2-1.8c-34.6-15.3-72-14.6-109-6.9c-4.5,0.9-8,0-10.2-4
			c-3.4-6.2-10.2-11.8-8.5-19.1c1.9-8.1,20.4-12.6,27.6-7.5c15.2,10.7,32.1,14.2,49.6,9c29-8.5,48.2-38.3,42.4-63.9
			C260.7,19.5,234,0.7,199.9,5.8c-23.2,3.5-48,26.2-46.6,47.6c1.4,21.4-8.8,31.8-25.4,39.9c-2.3,1.1-4.5,2.4-6.6,3.8
			c-9.2,6.6-11.3,14.5-6.1,24.6c3.6,7.1,7.4,14.2,12,20.6c3.7,5.3,2,8.2-2.2,11.7c-7.8,6.6-14.9,6.4-23.6,0.9
			c-20.4-12.8-41.9-12.9-63-1.9c-23.1,12.1-34.3,32.5-33.4,57.9c1,29.5,17.9,48.9,45.1,59.2c6.1,2.3,9.2,5.5,11.1,11.8
			c9.4,31.6,30.7,53.6,58.3,70.1c3.9,2.3,7.9,4.5,11.9,6.4c-6.6,11.8-16.1,20-33.1,18.8c-0.2,0-0.4,0.3-0.3,0.5
			c6.1,8.3,24.7-2,8.4,6.6c-0.2,0.1-0.2,0.4-0.1,0.5c10.5,8.9,28.2-14.3,16.3,1.8c2.9,1.1,11.1-11.2,6.1-1.1
			c-0.1,0.2,0.1,0.5,0.4,0.5c10.6-3.2,17.6-10.1,24.1-18.2c-1.5,6.2,0.4,3.3,2.3,0.3c0.6,0.2,1.3,0.4,1.9,0.6
			c-0.2,0.5-0.4,1.2-0.6,1.8c-0.1,0.3,0.2,0.5,0.5,0.3c0.7-0.5,1.4-1.1,2.1-1.6c16.1,4.7,31.9,6.8,45.6,6.7
			c22,0.1,41.4-2.4,58.8-7.5c8.5,8.8,17.4,13.4,11-0.4c2.6,5.9,6.8,10.4,12.4,14.3c-0.4-1.4-0.7-2.2-1.2-3.8
			c2.7,4.2,11.7,10.8,6.9,2c7.5,6.8,9.5,6.8,2.8-1.6c6.6,6.3,12.8,10.3,21.3,5.5c0.2-0.1,0.2-0.5,0-0.6c-16.6-7.6,8,0.7,8.2-6.4
			c0-0.2-0.1-0.3-0.3-0.3c-15.3-0.8-25.2-8.9-32.5-20c7.7-4,15-8.5,22.2-13.8c23.2-17,40.9-38.5,46.6-67.8c0.9-4.5,4.5-5,7.9-6.2
			c23.6-8.2,38.4-25.9,42.9-49.2C420.8,174.8,378.2,135.9,336.9,148.4z M211.5,32.8c15.6,0.2,29,13.5,29.3,29.2
			c0.3,16.2-13,29.4-29.7,29.4c-16.5,0-28.9-12.4-28.9-28.7C182.1,46,195.3,32.5,211.5,32.8z M60.3,233.7c-1.9,8.3-4.9,7-10.1,3.8
			c-12.6-7.8-18.7-23.5-14.5-37.7c4.3-14.8,18.1-25.1,34.5-24.8c1.9,0.3,5.2,0.5,8.3,1.4c10.2,2.9,10.7,4.7,3.9,13.1
			C71.9,202.6,64,217.3,60.3,233.7z M183.1,347.3c3-3.9,6.6-9,9.2-7.6c0.2,0.1,0.4,0.1,0.4-0.1c1.7-4.4,5.4-16.5,4.3-7.9
			c0,0.3,0.3,0.4,0.5,0.2c20.2-24.2,15.9-4,35.5,5.4c0.2,0.1,0.5-0.1,0.4-0.4c-2-9,4.5,4.5,6.9,8c-0.1-2.1-0.2-3.5-0.3-5.3
			c0.9,2,1.7,4,2.5,5.8C223.1,349.7,202.7,350.3,183.1,347.3z M310.9,309.7c-8.9,9-19.3,16.4-30.6,22.3
			c-9.5-24.3-16.8-48.1-40.9-42.1c-18.9,5.3-31.6,5.9-55.1,0.3c0,0,0,0,0,0c-28-2.4-35.3,21.1-43.1,44.4
			c-11.1-5.3-21.4-12.1-30.4-20.3c-35.3-32.3-36.2-78.7-2-112.2c28.3-27.6,63.1-38.8,102.5-39.6c36.2,0.6,69.8,10.2,97.4,35.6
			C343.5,230.2,344.2,276.2,310.9,309.7z M371.5,235.6c-5.1,4.1-8.7,6.3-10.5-3.1c-3.2-16.7-11.7-30.9-22.3-44
			c-2.1-2.6-7-4.8-5.4-8.6c1.6-3.7,6.6-3.7,10.5-4.4c2.1-0.4,4.3-0.5,5.5-0.6c15.4,0.2,28.2,9.6,33,23.5
			C386.7,211.4,382.2,226.9,371.5,235.6z"/>
	</g>
</g>
</svg>
